<?xml version="1.0" encoding="UTF-8" standalone="no"?>
<!-- Created with Inkscape (http://www.inkscape.org/) -->

<svg
   width="12mm"
   height="12mm"
   viewBox="0 0 12 12"
   version="1.1"
   id="svg5"
   xmlns="http://www.w3.org/2000/svg"
   xmlns:svg="http://www.w3.org/2000/svg">
  <defs
     id="defs2" />
  <g
     id="layer1">
    <g
       style="fill:#ffffff;fill-opacity:1;stroke:none"
       id="g274"
       transform="matrix(0.10344828,0,0,0.10344828,-1.6551724,-1.6551724)">
      <path
         d="m 124,132 h -4 c 0,0 0,0 0,0 v -4 c 0,0 0,0 0,0 h -4 c 0,0 0,0 0,0 v 4 c 0,0 0,0 0,0 h -8 c 0,0 0,0 0,0 v -4 c 0,0 0,0 0,0 h 4 c 0,0 0,0 0,0 v -4 c 0,0 0,0 0,0 h -8 c 0,0 0,0 0,0 v 4 c 0,0 0,0 0,0 h -4 c 0,0 0,0 0,0 v -12 c 0,0 0,0 0,0 h -8 c 0,0 0,0 0,0 v -12 c 0,0 0,0 0,0 h 4 c 0,0 0,0 0,0 v -4 c 0,0 0,0 0,0 h -4 c 0,0 0,0 0,0 v -4 c 0,0 0,0 0,0 h 4 c 0,0 0,0 0,0 v -4 c 0,0 0,0 0,0 h -8 c 0,0 0,0 0,0 v -8 c 0,0 0,0 0,0 h 28 c 0,0 0,0 0,0 v 4 c 0,0 0,0 0,0 h -12 c 0,0 0,0 0,0 v 8 c 0,0 0,0 0,0 h 8 c 0,0 0,0 0,0 v -4 c 0,0 0,0 0,0 h 4 c 0,0 0,0 0,0 v 8 c 0,0 0,0 0,0 h 4 c 0,0 0,0 0,0 v 4 c 0,0 0,0 0,0 h 4 c 0,0 0,0 0,0 v 4 c 0,0 0,0 0,0 h -8 c 0,0 0,0 0,0 v 4 c 0,0 0,0 0,0 h 4 c 0,0 0,0 0,0 v 4 c 0,0 0,0 0,0 h 4 c 0,0 0,0 0,0 v 4 c 0,0 0,0 0,0 h 4 c 0,0 0,0 0,0 v 4 c 0,0 0,0 0,0 h -4 c 0,0 0,0 0,0 v 8 c 0,0 0,0 0,0 z m -28,0 h -4 c 0,0 0,0 0,0 v -4 c 0,0 0,0 0,0 h -4 c 0,0 0,0 0,0 v -8 c 0,0 0,0 0,0 h 4 c 0,0 0,0 0,0 v 4 c 0,0 0,0 0,0 h 4 c 0,0 0,0 0,0 v 8 c 0,0 0,0 0,0 z m -8,0 H 76 c 0,0 0,0 0,0 v -16 c 0,0 0,0 0,0 h 4 c 0,0 0,0 0,0 v -4 c 0,0 0,0 0,0 h -4 c 0,0 0,0 0,0 v -4 c 0,0 0,0 0,0 h -4 c 0,0 0,0 0,0 v 8 c 0,0 0,0 0,0 H 56 c 0,0 0,0 0,0 v 4 c 0,0 0,0 0,0 h -4 c 0,0 0,0 0,0 v -8 c 0,0 0,0 0,0 h -4 c 0,0 0,0 0,0 v -12 c 0,0 0,0 0,0 H 32 c 0,0 0,0 0,0 v -4 c 0,0 0,0 0,0 h 4 c 0,0 0,0 0,0 v -4 c 0,0 0,0 0,0 h 4 c 0,0 0,0 0,0 v 4 c 0,0 0,0 0,0 h 12 c 0,0 0,0 0,0 v -4 c 0,0 0,0 0,0 h 4 c 0,0 0,0 0,0 v 4 c 0,0 0,0 0,0 h 4 c 0,0 0,0 0,0 v -4 c 0,0 0,0 0,0 h 4 c 0,0 0,0 0,0 v 8 c 0,0 0,0 0,0 h -4 c 0,0 0,0 0,0 v 12 c 0,0 0,0 0,0 h 4 c 0,0 0,0 0,0 v -4 c 0,0 0,0 0,0 h 4 c 0,0 0,0 0,0 v -4 c 0,0 0,0 0,0 h -4 c 0,0 0,0 0,0 v -4 c 0,0 0,0 0,0 h 8 c 0,0 0,0 0,0 v 4 c 0,0 0,0 0,0 h 4 c 0,0 0,0 0,0 v -4 c 0,0 0,0 0,0 h 4 c 0,0 0,0 0,0 v 4 c 0,0 0,0 0,0 h 4 c 0,0 0,0 0,0 v -8 c 0,0 0,0 0,0 h 4 c 0,0 0,0 0,0 v 4 c 0,0 0,0 0,0 h 4 c 0,0 0,0 0,0 v 4 c 0,0 0,0 0,0 h -4 c 0,0 0,0 0,0 v 4 c 0,0 0,0 0,0 h -4 c 0,0 0,0 0,0 v 12 c 0,0 0,0 0,0 h -4 c 0,0 0,0 0,0 v 4 c 0,0 0,0 0,0 h 4 c 0,0 0,0 0,0 v 4 c 0,0 0,0 0,0 h 4 c 0,0 0,0 0,0 v 4 c 0,0 0,0 0,0 z m -24,0 h -4 c 0,0 0,0 0,0 v -4 c 0,0 0,0 0,0 h -4 c 0,0 0,0 0,0 v -8 c 0,0 0,0 0,0 h 12 c 0,0 0,0 0,0 v 4 c 0,0 0,0 0,0 h -4 c 0,0 0,0 0,0 v 8 c 0,0 0,0 0,0 z m -8,0 h -8 c 0,0 0,0 0,0 v -8 c 0,0 0,0 0,0 h 4 c 0,0 0,0 0,0 v 4 c 0,0 0,0 0,0 h 4 c 0,0 0,0 0,0 v 4 c 0,0 0,0 0,0 z m -12,0 H 16 c 0,0 0,0 0,0 v -28 c 0,0 0,0 0,0 h 28 c 0,0 0,0 0,0 v 28 c 0,0 0,0 0,0 z m 88,-4 h -4 c 0,0 0,0 0,0 v -4 c 0,0 0,0 0,0 h 4 c 0,0 0,0 0,0 v 4 c 0,0 0,0 0,0 z m -92,0 v -20 c 0,0 0,0 0,0 H 20 c 0,0 0,0 0,0 v 20 c 0,0 0,0 0,0 h 20 c 0,0 0,0 0,0 z m -4,-4 H 24 c 0,0 0,0 0,0 v -12 c 0,0 0,0 0,0 h 12 c 0,0 0,0 0,0 v 12 c 0,0 0,0 0,0 z m 96,-4 h -4 c 0,0 0,0 0,0 v -4 c 0,0 0,0 0,0 h -4 c 0,0 0,0 0,0 v -8 c 0,0 0,0 0,0 h 4 c 0,0 0,0 0,0 v 4 c 0,0 0,0 0,0 h 4 c 0,0 0,0 0,0 v 8 c 0,0 0,0 0,0 z m -16,0 v -4 c 0,0 0,0 0,0 h -12 c 0,0 0,0 0,0 v 4 c 0,0 0,0 0,0 h 12 c 0,0 0,0 0,0 z m -4,-8 v -12 c 0,0 0,0 0,0 h -12 c 0,0 0,0 0,0 v 12 c 0,0 0,0 0,0 h 12 c 0,0 0,0 0,0 z m -4,-4 h -4 c 0,0 0,0 0,0 v -4 c 0,0 0,0 0,0 h 4 c 0,0 0,0 0,0 v 4 c 0,0 0,0 0,0 z m -52,0 v -8 c 0,0 0,0 0,0 h -4 c 0,0 0,0 0,0 v 8 c 0,0 0,0 0,0 h 4 c 0,0 0,0 0,0 z m 76,-8 h -12 c 0,0 0,0 0,0 v -4 c 0,0 0,0 0,0 h 12 c 0,0 0,0 0,0 v 4 c 0,0 0,0 0,0 z m -104,0 h -4 c 0,0 0,0 0,0 v -8 c 0,0 0,0 0,0 h 8 c 0,0 0,0 0,0 v 4 c 0,0 0,0 0,0 h -4 c 0,0 0,0 0,0 v 4 c 0,0 0,0 0,0 z m -8,0 h -4 c 0,0 0,0 0,0 V 84 c 0,0 0,0 0,0 h 4 c 0,0 0,0 0,0 v 4 c 0,0 0,0 0,0 h 4 c 0,0 0,0 0,0 v 4 c 0,0 0,0 0,0 h -4 c 0,0 0,0 0,0 v 8 c 0,0 0,0 0,0 z m 64,-4 h -4 c 0,0 0,0 0,0 v -4 c 0,0 0,0 0,0 h 4 c 0,0 0,0 0,0 v 4 c 0,0 0,0 0,0 z m -8,0 h -4 c 0,0 0,0 0,0 v -4 c 0,0 0,0 0,0 h -8 c 0,0 0,0 0,0 v -4 c 0,0 0,0 0,0 h 12 c 0,0 0,0 0,0 v -4 c 0,0 0,0 0,0 h 4 c 0,0 0,0 0,0 v 8 c 0,0 0,0 0,0 h -4 c 0,0 0,0 0,0 v 4 c 0,0 0,0 0,0 z m 56,-4 h -4 c 0,0 0,0 0,0 v -4 c 0,0 0,0 0,0 h -8 c 0,0 0,0 0,0 v -4 c 0,0 0,0 0,0 h -4 c 0,0 0,0 0,0 v -4 c 0,0 0,0 0,0 h 4 c 0,0 0,0 0,0 v -4 c 0,0 0,0 0,0 h -4 c 0,0 0,0 0,0 v 4 c 0,0 0,0 0,0 h -8 c 0,0 0,0 0,0 v -4 c 0,0 0,0 0,0 h 4 c 0,0 0,0 0,0 v -4 c 0,0 0,0 0,0 h -8 c 0,0 0,0 0,0 v 4 c 0,0 0,0 0,0 h -8 c 0,0 0,0 0,0 v -4 c 0,0 0,0 0,0 h 4 c 0,0 0,0 0,0 v -4 c 0,0 0,0 0,0 h 4 c 0,0 0,0 0,0 v -4 c 0,0 0,0 0,0 h 8 c 0,0 0,0 0,0 v 4 c 0,0 0,0 0,0 h 4 c 0,0 0,0 0,0 v 4 c 0,0 0,0 0,0 h 8 c 0,0 0,0 0,0 v 12 c 0,0 0,0 0,0 h 8 c 0,0 0,0 0,0 v 8 c 0,0 0,0 0,0 z m -12,0 h -4 c 0,0 0,0 0,0 v -4 c 0,0 0,0 0,0 h 4 c 0,0 0,0 0,0 v 4 c 0,0 0,0 0,0 z m -60,0 h -4 c 0,0 0,0 0,0 v -8 c 0,0 0,0 0,0 h 4 c 0,0 0,0 0,0 v 8 c 0,0 0,0 0,0 z m -16,0 h -4 c 0,0 0,0 0,0 v -4 c 0,0 0,0 0,0 h 4 c 0,0 0,0 0,0 v 4 c 0,0 0,0 0,0 z m -8,-4 h -8 c 0,0 0,0 0,0 v -4 c 0,0 0,0 0,0 h 4 c 0,0 0,0 0,0 v -4 c 0,0 0,0 0,0 h 4 c 0,0 0,0 0,0 v 8 c 0,0 0,0 0,0 z m 52,-4 h -4 c 0,0 0,0 0,0 v -4 c 0,0 0,0 0,0 h 4 c 0,0 0,0 0,0 v 4 c 0,0 0,0 0,0 z m -12,0 h -4 c 0,0 0,0 0,0 v -4 c 0,0 0,0 0,0 h -4 c 0,0 0,0 0,0 v 4 c 0,0 0,0 0,0 h -4 c 0,0 0,0 0,0 v -8 c 0,0 0,0 0,0 h 4 c 0,0 0,0 0,0 v -4 c 0,0 0,0 0,0 h -4 c 0,0 0,0 0,0 v -4 c 0,0 0,0 0,0 h 4 c 0,0 0,0 0,0 v -4 c 0,0 0,0 0,0 h 4 c 0,0 0,0 0,0 v -4 c 0,0 0,0 0,0 h 12 c 0,0 0,0 0,0 v 8 c 0,0 0,0 0,0 h -4 c 0,0 0,0 0,0 v -4 c 0,0 0,0 0,0 h -4 c 0,0 0,0 0,0 v 8 c 0,0 0,0 0,0 h 8 c 0,0 0,0 0,0 v 4 c 0,0 0,0 0,0 h -4 c 0,0 0,0 0,0 v 4 c 0,0 0,0 0,0 h -4 c 0,0 0,0 0,0 v 4 c 0,0 0,0 0,0 z m -32,0 h -4 c 0,0 0,0 0,0 v -4 c 0,0 0,0 0,0 h 4 c 0,0 0,0 0,0 v 4 c 0,0 0,0 0,0 z m -20,0 h -4 c 0,0 0,0 0,0 v -4 c 0,0 0,0 0,0 h 4 c 0,0 0,0 0,0 v 4 c 0,0 0,0 0,0 z m 108,-4 h -4 c 0,0 0,0 0,0 v -4 c 0,0 0,0 0,0 h 4 c 0,0 0,0 0,0 v 4 c 0,0 0,0 0,0 z m -76,0 h -4 c 0,0 0,0 0,0 v -4 c 0,0 0,0 0,0 h -4 c 0,0 0,0 0,0 v -4 c 0,0 0,0 0,0 h -4 c 0,0 0,0 0,0 v -4 c 0,0 0,0 0,0 h -4 c 0,0 0,0 0,0 v 4 c 0,0 0,0 0,0 H 28 c 0,0 0,0 0,0 v 4 c 0,0 0,0 0,0 h 4 c 0,0 0,0 0,0 v 4 c 0,0 0,0 0,0 h -8 c 0,0 0,0 0,0 v -4 c 0,0 0,0 0,0 h -4 c 0,0 0,0 0,0 v -4 c 0,0 0,0 0,0 h 4 c 0,0 0,0 0,0 v -8 c 0,0 0,0 0,0 h -4 c 0,0 0,0 0,0 v 8 c 0,0 0,0 0,0 h -4 c 0,0 0,0 0,0 V 60 c 0,0 0,0 0,0 h 8 c 0,0 0,0 0,0 v -4 c 0,0 0,0 0,0 h 4 c 0,0 0,0 0,0 v 4 c 0,0 0,0 0,0 h 4 c 0,0 0,0 0,0 v 4 c 0,0 0,0 0,0 h -4 c 0,0 0,0 0,0 v 4 c 0,0 0,0 0,0 h 4 c 0,0 0,0 0,0 v -4 c 0,0 0,0 0,0 h 12 c 0,0 0,0 0,0 v -4 c 0,0 0,0 0,0 h -8 c 0,0 0,0 0,0 v -4 c 0,0 0,0 0,0 h -8 c 0,0 0,0 0,0 v -4 c 0,0 0,0 0,0 h 8 c 0,0 0,0 0,0 v -4 c 0,0 0,0 0,0 h 12 c 0,0 0,0 0,0 v 12 c 0,0 0,0 0,0 h 4 c 0,0 0,0 0,0 v 4 c 0,0 0,0 0,0 h 4 c 0,0 0,0 0,0 v -4 c 0,0 0,0 0,0 h 4 c 0,0 0,0 0,0 v -4 c 0,0 0,0 0,0 h 8 c 0,0 0,0 0,0 v 4 c 0,0 0,0 0,0 h -4 c 0,0 0,0 0,0 v 4 c 0,0 0,0 0,0 h -4 c 0,0 0,0 0,0 v 12 c 0,0 0,0 0,0 h -4 c 0,0 0,0 0,0 v 4 c 0,0 0,0 0,0 z m 36,-4 h -4 c 0,0 0,0 0,0 v -4 c 0,0 0,0 0,0 h -4 c 0,0 0,0 0,0 v -4 c 0,0 0,0 0,0 h 12 c 0,0 0,0 0,0 v 4 c 0,0 0,0 0,0 h -4 c 0,0 0,0 0,0 v 4 c 0,0 0,0 0,0 z m -48,0 h -4 c 0,0 0,0 0,0 v -4 c 0,0 0,0 0,0 h 4 c 0,0 0,0 0,0 v 4 c 0,0 0,0 0,0 z m 88,-4 h -8 c 0,0 0,0 0,0 v -4 c 0,0 0,0 0,0 h 4 c 0,0 0,0 0,0 v -4 c 0,0 0,0 0,0 h 4 c 0,0 0,0 0,0 v 8 c 0,0 0,0 0,0 z m -76,0 v -4 c 0,0 0,0 0,0 h -4 c 0,0 0,0 0,0 v 4 c 0,0 0,0 0,0 h 4 c 0,0 0,0 0,0 z m 44,-4 h -4 c 0,0 0,0 0,0 v -4 c 0,0 0,0 0,0 h -8 c 0,0 0,0 0,0 v -8 c 0,0 0,0 0,0 h 4 c 0,0 0,0 0,0 v 4 c 0,0 0,0 0,0 h 8 c 0,0 0,0 0,0 v 8 c 0,0 0,0 0,0 z m 20,-4 h -8 c 0,0 0,0 0,0 v -4 c 0,0 0,0 0,0 h -8 c 0,0 0,0 0,0 v -4 c 0,0 0,0 0,0 h 4 c 0,0 0,0 0,0 v -4 c 0,0 0,0 0,0 h 4 c 0,0 0,0 0,0 v -4 c 0,0 0,0 0,0 h 8 c 0,0 0,0 0,0 v 4 c 0,0 0,0 0,0 h -4 c 0,0 0,0 0,0 v 8 c 0,0 0,0 0,0 h 4 c 0,0 0,0 0,0 v 4 c 0,0 0,0 0,0 z M 56,60 h -4 c 0,0 0,0 0,0 v -4 c 0,0 0,0 0,0 h 4 c 0,0 0,0 0,0 v 4 c 0,0 0,0 0,0 z m 72,-4 h -8 c 0,0 0,0 0,0 v -4 c 0,0 0,0 0,0 h 8 c 0,0 0,0 0,0 v 4 c 0,0 0,0 0,0 z m -32,0 h -4 c 0,0 0,0 0,0 v -4 c 0,0 0,0 0,0 h 4 c 0,0 0,0 0,0 v 4 c 0,0 0,0 0,0 z m -20,0 h -4 c 0,0 0,0 0,0 v -8 c 0,0 0,0 0,0 h 8 c 0,0 0,0 0,0 v 4 c 0,0 0,0 0,0 h -4 c 0,0 0,0 0,0 v 4 c 0,0 0,0 0,0 z m -16,0 h -4 c 0,0 0,0 0,0 v -4 c 0,0 0,0 0,0 h -4 c 0,0 0,0 0,0 v -8 c 0,0 0,0 0,0 h 4 c 0,0 0,0 0,0 v 4 c 0,0 0,0 0,0 h 4 c 0,0 0,0 0,0 v 8 c 0,0 0,0 0,0 z m -16,0 v -4 c 0,0 0,0 0,0 h -4 c 0,0 0,0 0,0 v 4 c 0,0 0,0 0,0 h 4 c 0,0 0,0 0,0 z m -24,0 h -4 c 0,0 0,0 0,0 v -8 c 0,0 0,0 0,0 h 8 c 0,0 0,0 0,0 v 4 c 0,0 0,0 0,0 h -4 c 0,0 0,0 0,0 v 4 c 0,0 0,0 0,0 z m 68,-4 h -4 c 0,0 0,0 0,0 v -4 c 0,0 0,0 0,0 h 4 c 0,0 0,0 0,0 v 4 c 0,0 0,0 0,0 z m -20,0 h -4 c 0,0 0,0 0,0 V 40 c 0,0 0,0 0,0 h 4 c 0,0 0,0 0,0 v 4 c 0,0 0,0 0,0 h 4 c 0,0 0,0 0,0 v 4 c 0,0 0,0 0,0 h -4 c 0,0 0,0 0,0 v 4 c 0,0 0,0 0,0 z m 28,-4 h -4 c 0,0 0,0 0,0 v -4 c 0,0 0,0 0,0 h 4 c 0,0 0,0 0,0 v 4 c 0,0 0,0 0,0 z m 36,-4 h -28 c 0,0 0,0 0,0 V 16 c 0,0 0,0 0,0 h 28 c 0,0 0,0 0,0 v 28 c 0,0 0,0 0,0 z m -32,0 h -4 c 0,0 0,0 0,0 v -8 c 0,0 0,0 0,0 h -8 c 0,0 0,0 0,0 v 4 c 0,0 0,0 0,0 h -4 c 0,0 0,0 0,0 v 4 c 0,0 0,0 0,0 h -4 c 0,0 0,0 0,0 v -8 c 0,0 0,0 0,0 h 4 c 0,0 0,0 0,0 v -8 c 0,0 0,0 0,0 h 8 c 0,0 0,0 0,0 v -4 c 0,0 0,0 0,0 h 4 c 0,0 0,0 0,0 v -4 c 0,0 0,0 0,0 h 4 c 0,0 0,0 0,0 v 24 c 0,0 0,0 0,0 z m -8,0 h -4 c 0,0 0,0 0,0 v -4 c 0,0 0,0 0,0 h 4 c 0,0 0,0 0,0 v 4 c 0,0 0,0 0,0 z m -16,0 h -4 c 0,0 0,0 0,0 v -4 c 0,0 0,0 0,0 h -4 c 0,0 0,0 0,0 v -4 c 0,0 0,0 0,0 h -4 c 0,0 0,0 0,0 v -4 c 0,0 0,0 0,0 h 8 c 0,0 0,0 0,0 v -8 c 0,0 0,0 0,0 h 4 c 0,0 0,0 0,0 v 4 c 0,0 0,0 0,0 h 4 c 0,0 0,0 0,0 v 8 c 0,0 0,0 0,0 h -4 c 0,0 0,0 0,0 v 8 c 0,0 0,0 0,0 z m -16,0 h -4 c 0,0 0,0 0,0 v -4 c 0,0 0,0 0,0 h -4 c 0,0 0,0 0,0 v -4 c 0,0 0,0 0,0 h 4 c 0,0 0,0 0,0 v -8 c 0,0 0,0 0,0 h -4 c 0,0 0,0 0,0 v -4 c 0,0 0,0 0,0 h 8 c 0,0 0,0 0,0 v -4 c 0,0 0,0 0,0 h -8 c 0,0 0,0 0,0 v -4 c 0,0 0,0 0,0 h 12 c 0,0 0,0 0,0 v 4 c 0,0 0,0 0,0 h 4 c 0,0 0,0 0,0 v 4 c 0,0 0,0 0,0 h -4 c 0,0 0,0 0,0 v 8 c 0,0 0,0 0,0 h -4 c 0,0 0,0 0,0 v 12 c 0,0 0,0 0,0 z m -8,0 h -4 c 0,0 0,0 0,0 v -4 c 0,0 0,0 0,0 h 4 c 0,0 0,0 0,0 v 4 c 0,0 0,0 0,0 z m -8,0 H 16 c 0,0 0,0 0,0 V 16 c 0,0 0,0 0,0 h 28 c 0,0 0,0 0,0 v 28 c 0,0 0,0 0,0 z m 84,-4 V 20 c 0,0 0,0 0,0 h -20 c 0,0 0,0 0,0 v 20 c 0,0 0,0 0,0 h 20 c 0,0 0,0 0,0 z M 40,40 V 20 c 0,0 0,0 0,0 H 20 c 0,0 0,0 0,0 v 20 c 0,0 0,0 0,0 h 20 c 0,0 0,0 0,0 z m 84,-4 h -12 c 0,0 0,0 0,0 V 24 c 0,0 0,0 0,0 h 12 c 0,0 0,0 0,0 v 12 c 0,0 0,0 0,0 z m -72,0 h -4 c 0,0 0,0 0,0 v -8 c 0,0 0,0 0,0 h 4 c 0,0 0,0 0,0 v 8 c 0,0 0,0 0,0 z M 36,36 H 24 c 0,0 0,0 0,0 V 24 c 0,0 0,0 0,0 h 12 c 0,0 0,0 0,0 v 12 c 0,0 0,0 0,0 z m 48,-8 h -4 c 0,0 0,0 0,0 v -4 c 0,0 0,0 0,0 h 4 c 0,0 0,0 0,0 v 4 c 0,0 0,0 0,0 z m -4,-4 h -4 c 0,0 0,0 0,0 v -4 c 0,0 0,0 0,0 h -8 c 0,0 0,0 0,0 v -4 c 0,0 0,0 0,0 h 12 c 0,0 0,0 0,0 v 8 c 0,0 0,0 0,0 z m 12,-4 h -4 c 0,0 0,0 0,0 v -4 c 0,0 0,0 0,0 h 4 c 0,0 0,0 0,0 v 4 c 0,0 0,0 0,0 z"
         id="path272"
         style="fill:#ffffff;fill-opacity:1" />
    </g>
  </g>
</svg>
